<?xml version="1.0" encoding="utf-8"?>
<!-- Generator: Adobe Illustrator 16.0.3, SVG Export Plug-In . SVG Version: 6.00 Build 0)  -->
<!DOCTYPE svg PUBLIC "-//W3C//DTD SVG 1.1//EN" "http://www.w3.org/Graphics/SVG/1.1/DTD/svg11.dtd">
<svg version="1.1" id="Warstwa_1" xmlns="http://www.w3.org/2000/svg" xmlns:xlink="http://www.w3.org/1999/xlink" x="0px" y="0px"
	 width="476.219px" height="267.699px" viewBox="0 0 476.219 267.699" enable-background="new 0 0 476.219 267.699"
	 xml:space="preserve">
<g>
	<rect fill="#FFFFFF" width="476.219" height="267.699"/>
</g>
<g>
	<rect x="16.98" y="216.199" fill="#ECECEC" width="441.999" height="32.5"/>
</g>
<g>
	<g>
		<rect x="17.111" y="19.698" fill="#FFFFFF" width="441.999" height="181.334"/>
	</g>
	<g>
		<g>
			<polygon fill="#222221" points="459.625,201.547 453.11,201.547 453.11,200.518 458.595,200.518 458.595,195.033 
				459.625,195.033 			"/>
		</g>
		<g>
			<path fill="#222221" d="M440.825,201.547h-12.286v-1.029h12.286V201.547z M416.253,201.547h-12.286v-1.029h12.286V201.547z
				 M391.682,201.547h-12.286v-1.029h12.286V201.547z M367.111,201.547h-12.286v-1.029h12.286V201.547z M342.54,201.547h-12.286
				v-1.029h12.286V201.547z M317.967,201.547h-12.285v-1.029h12.285V201.547z M293.396,201.547h-12.285v-1.029h12.285V201.547z
				 M268.825,201.547H256.54v-1.029h12.285V201.547z M244.253,201.547h-12.286v-1.029h12.286V201.547z M219.682,201.547h-12.286
				v-1.029h12.286V201.547z M195.111,201.547h-12.286v-1.029h12.286V201.547z M170.539,201.547h-12.286v-1.029h12.286V201.547z
				 M145.968,201.547h-12.286v-1.029h12.286V201.547z M121.396,201.547h-12.286v-1.029h12.286V201.547z M96.825,201.547H84.54
				v-1.029h12.286V201.547z M72.253,201.547H59.968v-1.029h12.286V201.547z M47.682,201.547H35.396v-1.029h12.286V201.547z"/>
		</g>
		<g>
			<polygon fill="#222221" points="23.111,201.547 16.596,201.547 16.596,195.033 17.625,195.033 17.625,200.518 23.111,200.518 			
				"/>
		</g>
		<g>
			<path fill="#222221" d="M17.625,183.744h-1.029v-11.289h1.029V183.744z M17.625,161.166h-1.029v-11.289h1.029V161.166z
				 M17.625,138.588h-1.029v-11.289h1.029V138.588z M17.625,116.01h-1.029v-11.289h1.029V116.01z M17.625,93.433h-1.029V82.144
				h1.029V93.433z M17.625,70.854h-1.029V59.566h1.029V70.854z M17.625,48.277h-1.029V36.988h1.029V48.277z"/>
		</g>
		<g>
			<polygon fill="#222221" points="17.625,25.698 16.596,25.698 16.596,19.184 23.111,19.184 23.111,20.213 17.625,20.213 			"/>
		</g>
		<g>
			<path fill="#222221" d="M440.824,20.213h-12.285v-1.029h12.285V20.213z M416.252,20.213h-12.285v-1.029h12.285V20.213z
				 M391.681,20.213h-12.285v-1.029h12.285V20.213z M367.11,20.213h-12.286v-1.029h12.286V20.213z M342.539,20.213h-12.286v-1.029
				h12.286V20.213z M317.967,20.213h-12.286v-1.029h12.286V20.213z M293.396,20.213H281.11v-1.029h12.286V20.213z M268.825,20.213
				h-12.286v-1.029h12.286V20.213z M244.252,20.213h-12.285v-1.029h12.285V20.213z M219.682,20.213h-12.286v-1.029h12.286V20.213z
				 M195.11,20.213h-12.286v-1.029h12.286V20.213z M170.539,20.213h-12.286v-1.029h12.286V20.213z M145.967,20.213h-12.286v-1.029
				h12.286V20.213z M121.396,20.213H109.11v-1.029h12.286V20.213z M96.825,20.213H84.539v-1.029h12.286V20.213z M72.253,20.213
				H59.967v-1.029h12.286V20.213z M47.682,20.213H35.396v-1.029h12.286V20.213z"/>
		</g>
		<g>
			<polygon fill="#222221" points="459.625,25.698 458.595,25.698 458.595,20.213 453.11,20.213 453.11,19.184 459.625,19.184 			
				"/>
		</g>
		<g>
			<path fill="#222221" d="M459.625,183.743h-1.029v-11.289h1.029V183.743z M459.625,161.165h-1.029v-11.289h1.029V161.165z
				 M459.625,138.587h-1.029v-11.29h1.029V138.587z M459.625,116.009h-1.029V104.72h1.029V116.009z M459.625,93.431h-1.029V82.143
				h1.029V93.431z M459.625,70.854h-1.029V59.564h1.029V70.854z M459.625,48.276h-1.029V36.987h1.029V48.276z"/>
		</g>
	</g>
</g>
<g>
	<rect x="161.813" y="20.073" fill="#68A8DE" width="5" height="180.334"/>
</g>
<g>
	<rect x="309.146" y="20.073" fill="#68A8DE" width="5" height="180.334"/>
</g>
<g>
	<rect x="27.98" y="107.365" fill="#9C9B9B" width="118.667" height="3"/>
</g>
<g>
	<path fill="#9C9B9B" d="M147.139,107.844H27.488V30.046h119.651V107.844z M28.472,106.86h117.683V31.03H28.472V106.86z"/>
</g>
<g>
	<path fill="#9C9B9B" d="M147.139,187.683H27.488v-77.798h119.651V187.683z M28.472,186.699h117.683v-75.83H28.472V186.699z"/>
</g>
<g enable-background="new    ">
	<g>
		<path fill="#222221" d="M203.55,231.025h-3.36v-1.98h9.149v1.98h-3.36v8.52h-2.43V231.025z"/>
	</g>
	<g>
		<path fill="#222221" d="M217.335,239.544l-2.025-2.926h-0.12h-2.115v2.926h-2.43v-10.5h4.544c2.805,0,4.56,1.455,4.56,3.811
			c0,1.574-0.795,2.729-2.16,3.314l2.355,3.375H217.335z M215.055,231.025h-1.98v3.66h1.98c1.485,0,2.235-0.691,2.235-1.83
			C217.29,231.699,216.54,231.025,215.055,231.025z"/>
	</g>
	<g>
		<path fill="#222221" d="M226.56,235.824v3.721h-2.43v-3.75l-4.065-6.75h2.58l2.805,4.664l2.805-4.664h2.385L226.56,235.824z"/>
	</g>
	<g>
		<path fill="#222221" d="M241.184,236.679c0,1.814-1.439,2.865-4.199,2.865h-5.43v-10.5h5.129c2.625,0,3.975,1.096,3.975,2.73
			c0,1.049-0.54,1.859-1.396,2.309C240.434,234.458,241.184,235.359,241.184,236.679z M233.97,230.875v2.475h2.415
			c1.185,0,1.83-0.42,1.83-1.244c0-0.826-0.645-1.23-1.83-1.23H233.97z M238.74,236.423c0-0.885-0.675-1.305-1.935-1.305h-2.835
			v2.596h2.835C238.065,237.714,238.74,237.324,238.74,236.423z"/>
	</g>
	<g>
		<path fill="#222221" d="M242.94,234.923v-5.879h2.43v5.789c0,1.996,0.87,2.82,2.34,2.82c1.485,0,2.34-0.824,2.34-2.82v-5.789h2.4
			v5.879c0,3.09-1.77,4.801-4.755,4.801S242.94,238.013,242.94,234.923z"/>
	</g>
	<g>
		<path fill="#222221" d="M264.479,229.044v10.5h-1.994l-5.234-6.375v6.375h-2.4v-10.5h2.01l5.22,6.375v-6.375H264.479z"/>
	</g>
	<g>
		<path fill="#222221" d="M272.01,235.824v3.721h-2.43v-3.75l-4.065-6.75h2.58l2.805,4.664l2.805-4.664h2.386L272.01,235.824z"/>
	</g>
</g>
<g enable-background="new    ">
	<g>
		<path d="M54.399,68.622h2.974v5.707c-1.547,1.166-3.678,1.789-5.687,1.789c-4.421,0-7.677-3.034-7.677-7.274
			s3.255-7.275,7.737-7.275c2.472,0,4.521,0.845,5.888,2.432l-2.09,1.93c-1.025-1.085-2.21-1.588-3.637-1.588
			c-2.733,0-4.602,1.829-4.602,4.502c0,2.632,1.869,4.501,4.562,4.501c0.884,0,1.708-0.16,2.532-0.603V68.622z"/>
	</g>
	<g>
		<path d="M69.351,75.877l-2.713-3.919h-0.161h-2.833v3.919h-3.255V61.81h6.089c3.758,0,6.109,1.949,6.109,5.104
			c0,2.11-1.065,3.657-2.894,4.441l3.155,4.521H69.351z M66.296,64.463h-2.653v4.903h2.653c1.989,0,2.994-0.925,2.994-2.452
			C69.291,65.367,68.286,64.463,66.296,64.463z"/>
	</g>
	<g>
		<path d="M75.038,69.688V61.81h3.255v7.757c0,2.673,1.166,3.778,3.135,3.778c1.989,0,3.135-1.105,3.135-3.778V61.81h3.215v7.878
			c0,4.14-2.371,6.431-6.37,6.431C77.409,76.118,75.038,73.827,75.038,69.688z"/>
	</g>
	<g>
		<path d="M103.193,66.914c0,3.135-2.351,5.084-6.109,5.084H94.25v3.879h-3.255V61.81h6.089
			C100.842,61.81,103.193,63.759,103.193,66.914z M99.897,66.914c0-1.547-1.005-2.451-2.994-2.451H94.25v4.883h2.653
			C98.892,69.346,99.897,68.441,99.897,66.914z"/>
	</g>
	<g>
		<path d="M114.065,72.862h-6.531l-1.246,3.015h-3.336l6.27-14.067h3.215l6.29,14.067h-3.416L114.065,72.862z M113.04,70.391
			l-2.23-5.386l-2.231,5.386H113.04z"/>
	</g>
	<g>
		<path d="M130.423,61.81v14.067h-3.255V64.422h-2.813V61.81H130.423z"/>
	</g>
</g>
<g enable-background="new    ">
	<g>
		<path d="M50.899,148.457h2.974v5.707c-1.547,1.166-3.678,1.789-5.687,1.789c-4.421,0-7.677-3.035-7.677-7.275
			s3.255-7.275,7.737-7.275c2.472,0,4.521,0.846,5.888,2.432l-2.09,1.93c-1.025-1.084-2.21-1.588-3.637-1.588
			c-2.733,0-4.602,1.83-4.602,4.502c0,2.633,1.869,4.502,4.562,4.502c0.884,0,1.708-0.16,2.532-0.604V148.457z"/>
	</g>
	<g>
		<path d="M65.851,155.71l-2.713-3.918h-0.161h-2.833v3.918h-3.255v-14.066h6.089c3.758,0,6.109,1.949,6.109,5.104
			c0,2.111-1.065,3.658-2.894,4.441l3.155,4.521H65.851z M62.796,144.296h-2.653v4.904h2.653c1.989,0,2.994-0.926,2.994-2.453
			C65.791,145.201,64.786,144.296,62.796,144.296z"/>
	</g>
	<g>
		<path d="M71.538,149.521v-7.877h3.255v7.756c0,2.674,1.166,3.779,3.135,3.779c1.989,0,3.135-1.105,3.135-3.779v-7.756h3.215v7.877
			c0,4.141-2.371,6.432-6.37,6.432C73.909,155.953,71.538,153.662,71.538,149.521z"/>
	</g>
	<g>
		<path d="M99.693,146.748c0,3.135-2.351,5.084-6.109,5.084H90.75v3.879h-3.255v-14.066h6.089
			C97.342,141.644,99.693,143.593,99.693,146.748z M96.397,146.748c0-1.547-1.005-2.451-2.994-2.451H90.75v4.883h2.653
			C95.392,149.179,96.397,148.275,96.397,146.748z"/>
	</g>
	<g>
		<path d="M110.565,152.697h-6.531l-1.246,3.014h-3.336l6.27-14.066h3.215l6.29,14.066h-3.416L110.565,152.697z M109.54,150.224
			l-2.23-5.385l-2.231,5.385H109.54z"/>
	</g>
	<g>
		<path d="M132.007,153.058v2.652h-10.631v-2.109l5.426-5.125c1.246-1.186,1.467-1.908,1.467-2.592c0-1.105-0.764-1.748-2.251-1.748
			c-1.206,0-2.23,0.461-2.914,1.406l-2.372-1.527c1.085-1.588,3.055-2.613,5.587-2.613c3.135,0,5.225,1.609,5.225,4.16
			c0,1.367-0.382,2.613-2.351,4.441l-3.235,3.055H132.007z"/>
	</g>
</g>
<g>
	<rect x="27.313" y="106.859" fill="#222221" width="119.813" height="4.012"/>
</g>
<g>
	<rect x="178.871" y="107.365" fill="#9C9B9B" width="118.667" height="3"/>
</g>
<g>
	<path fill="#9C9B9B" d="M298.03,107.844H178.379V30.046H298.03V107.844z M179.363,106.86h117.682V31.03H179.363V106.86z"/>
</g>
<g>
	<path fill="#9C9B9B" d="M298.03,187.683H178.379v-77.798H298.03V187.683z M179.363,186.699h117.682v-75.83H179.363V186.699z"/>
</g>
<g enable-background="new    ">
	<g>
		<path d="M202.841,68.622h2.974v5.707c-1.547,1.166-3.678,1.789-5.687,1.789c-4.421,0-7.677-3.034-7.677-7.274
			s3.255-7.275,7.737-7.275c2.472,0,4.521,0.845,5.888,2.432l-2.09,1.93c-1.025-1.085-2.21-1.588-3.637-1.588
			c-2.733,0-4.602,1.829-4.602,4.502c0,2.632,1.869,4.501,4.562,4.501c0.884,0,1.708-0.16,2.532-0.603V68.622z"/>
	</g>
	<g>
		<path d="M217.792,75.877l-2.713-3.919h-0.161h-2.833v3.919h-3.255V61.81h6.089c3.758,0,6.109,1.949,6.109,5.104
			c0,2.11-1.065,3.657-2.894,4.441l3.155,4.521H217.792z M214.738,64.463h-2.653v4.903h2.653c1.989,0,2.994-0.925,2.994-2.452
			C217.732,65.367,216.727,64.463,214.738,64.463z"/>
	</g>
	<g>
		<path d="M223.479,69.688V61.81h3.255v7.757c0,2.673,1.166,3.778,3.135,3.778c1.989,0,3.135-1.105,3.135-3.778V61.81h3.215v7.878
			c0,4.14-2.371,6.431-6.37,6.431C225.851,76.118,223.479,73.827,223.479,69.688z"/>
	</g>
	<g>
		<path d="M251.634,66.914c0,3.135-2.351,5.084-6.109,5.084h-2.833v3.879h-3.256V61.81h6.089
			C249.284,61.81,251.634,63.759,251.634,66.914z M248.338,66.914c0-1.547-1.005-2.451-2.994-2.451h-2.652v4.883h2.652
			C247.333,69.346,248.338,68.441,248.338,66.914z"/>
	</g>
	<g>
		<path d="M262.506,72.862h-6.531l-1.246,3.015h-3.336l6.27-14.067h3.216l6.29,14.067h-3.416L262.506,72.862z M261.481,70.391
			l-2.23-5.386l-2.23,5.386H261.481z"/>
	</g>
	<g>
		<path d="M283.829,71.576c0,2.371-1.829,4.542-5.828,4.542c-1.97,0-4-0.543-5.365-1.507l1.266-2.492
			c1.064,0.804,2.553,1.266,4.02,1.266c1.627,0,2.632-0.663,2.632-1.809c0-1.064-0.784-1.728-2.632-1.728h-1.488v-2.15l2.895-3.276
			h-5.988V61.81h9.847v2.11l-3.175,3.617C282.542,67.939,283.829,69.507,283.829,71.576z"/>
	</g>
</g>
<g enable-background="new    ">
	<g>
		<path d="M201.866,148.457h2.974v5.707c-1.547,1.166-3.678,1.789-5.687,1.789c-4.421,0-7.677-3.035-7.677-7.275
			s3.255-7.275,7.737-7.275c2.472,0,4.521,0.846,5.888,2.432l-2.09,1.93c-1.025-1.084-2.21-1.588-3.637-1.588
			c-2.733,0-4.602,1.83-4.602,4.502c0,2.633,1.869,4.502,4.562,4.502c0.884,0,1.708-0.16,2.532-0.604V148.457z"/>
	</g>
	<g>
		<path d="M216.818,155.71l-2.713-3.918h-0.161h-2.833v3.918h-3.255v-14.066h6.089c3.758,0,6.109,1.949,6.109,5.104
			c0,2.111-1.065,3.658-2.894,4.441l3.155,4.521H216.818z M213.763,144.296h-2.653v4.904h2.653c1.989,0,2.994-0.926,2.994-2.453
			C216.757,145.201,215.752,144.296,213.763,144.296z"/>
	</g>
	<g>
		<path d="M222.505,149.521v-7.877h3.255v7.756c0,2.674,1.166,3.779,3.135,3.779c1.989,0,3.135-1.105,3.135-3.779v-7.756h3.215
			v7.877c0,4.141-2.371,6.432-6.37,6.432C224.876,155.953,222.505,153.662,222.505,149.521z"/>
	</g>
	<g>
		<path d="M250.66,146.748c0,3.135-2.351,5.084-6.109,5.084h-2.833v3.879h-3.256v-14.066h6.089
			C248.309,141.644,250.66,143.593,250.66,146.748z M247.364,146.748c0-1.547-1.005-2.451-2.994-2.451h-2.652v4.883h2.652
			C246.359,149.179,247.364,148.275,247.364,146.748z"/>
	</g>
	<g>
		<path d="M261.532,152.697H255l-1.246,3.014h-3.336l6.27-14.066h3.216l6.29,14.066h-3.416L261.532,152.697z M260.506,150.224
			l-2.23-5.385l-2.23,5.385H260.506z"/>
	</g>
	<g>
		<path d="M285.345,152.757h-2.291v2.953h-3.175v-2.953h-7.576v-2.191l6.631-8.922h3.417l-6.149,8.461h3.778v-2.633h3.074v2.633
			h2.291V152.757z"/>
	</g>
</g>
<g>
	<rect x="178.204" y="106.859" fill="#222221" width="119.813" height="4.012"/>
</g>
<g>
	<rect x="329.76" y="107.365" fill="#9C9B9B" width="118.668" height="3"/>
</g>
<g>
	<path fill="#9C9B9B" d="M448.92,107.844H329.268V30.046H448.92V107.844z M330.252,106.86h117.684V31.03H330.252V106.86z"/>
</g>
<g>
	<path fill="#9C9B9B" d="M448.92,187.683H329.268v-77.798H448.92V187.683z M330.252,186.699h117.684v-75.83H330.252V186.699z"/>
</g>
<g enable-background="new    ">
	<g>
		<path d="M354.43,68.622h2.975v5.707c-1.547,1.166-3.678,1.789-5.688,1.789c-4.421,0-7.676-3.034-7.676-7.274
			s3.255-7.275,7.736-7.275c2.472,0,4.521,0.845,5.889,2.432l-2.09,1.93c-1.025-1.085-2.211-1.588-3.638-1.588
			c-2.733,0-4.603,1.829-4.603,4.502c0,2.632,1.869,4.501,4.563,4.501c0.884,0,1.707-0.16,2.531-0.603V68.622z"/>
	</g>
	<g>
		<path d="M369.382,75.877l-2.713-3.919h-0.161h-2.834v3.919h-3.255V61.81h6.089c3.758,0,6.109,1.949,6.109,5.104
			c0,2.11-1.064,3.657-2.895,4.441l3.156,4.521H369.382z M366.328,64.463h-2.653v4.903h2.653c1.989,0,2.994-0.925,2.994-2.452
			C369.322,65.367,368.317,64.463,366.328,64.463z"/>
	</g>
	<g>
		<path d="M375.069,69.688V61.81h3.256v7.757c0,2.673,1.166,3.778,3.135,3.778c1.99,0,3.135-1.105,3.135-3.778V61.81h3.216v7.878
			c0,4.14-2.371,6.431-6.37,6.431C377.44,76.118,375.069,73.827,375.069,69.688z"/>
	</g>
	<g>
		<path d="M403.224,66.914c0,3.135-2.351,5.084-6.109,5.084h-2.833v3.879h-3.256V61.81h6.089
			C400.874,61.81,403.224,63.759,403.224,66.914z M399.928,66.914c0-1.547-1.005-2.451-2.994-2.451h-2.652v4.883h2.652
			C398.923,69.346,399.928,68.441,399.928,66.914z"/>
	</g>
	<g>
		<path d="M414.096,72.862h-6.531l-1.246,3.015h-3.336l6.27-14.067h3.216l6.29,14.067h-3.416L414.096,72.862z M413.071,70.391
			l-2.23-5.386l-2.23,5.386H413.071z"/>
	</g>
	<g>
		<path d="M435.659,71.456c0,2.491-1.828,4.662-5.848,4.662c-1.949,0-3.999-0.543-5.365-1.507l1.286-2.492
			c1.065,0.804,2.532,1.266,3.999,1.266c1.627,0,2.633-0.683,2.633-1.828c0-1.105-0.724-1.829-3.275-1.829h-3.598l0.723-7.918h8.582
			v2.612h-5.869l-0.221,2.673h1.146C434.011,67.095,435.659,68.964,435.659,71.456z"/>
	</g>
</g>
<g enable-background="new    ">
	<g>
		<path d="M350.93,148.457h2.975v5.707c-1.547,1.166-3.678,1.789-5.688,1.789c-4.421,0-7.676-3.035-7.676-7.275
			s3.255-7.275,7.736-7.275c2.472,0,4.521,0.846,5.889,2.432l-2.09,1.93c-1.025-1.084-2.211-1.588-3.638-1.588
			c-2.733,0-4.603,1.83-4.603,4.502c0,2.633,1.869,4.502,4.563,4.502c0.884,0,1.707-0.16,2.531-0.604V148.457z"/>
	</g>
	<g>
		<path d="M365.882,155.71l-2.713-3.918h-0.161h-2.834v3.918h-3.255v-14.066h6.089c3.758,0,6.109,1.949,6.109,5.104
			c0,2.111-1.064,3.658-2.895,4.441l3.156,4.521H365.882z M362.828,144.296h-2.653v4.904h2.653c1.989,0,2.994-0.926,2.994-2.453
			C365.822,145.201,364.817,144.296,362.828,144.296z"/>
	</g>
	<g>
		<path d="M371.569,149.521v-7.877h3.256v7.756c0,2.674,1.166,3.779,3.135,3.779c1.99,0,3.135-1.105,3.135-3.779v-7.756h3.216v7.877
			c0,4.141-2.371,6.432-6.37,6.432C373.94,155.953,371.569,153.662,371.569,149.521z"/>
	</g>
	<g>
		<path d="M399.724,146.748c0,3.135-2.351,5.084-6.109,5.084h-2.833v3.879h-3.256v-14.066h6.089
			C397.374,141.644,399.724,143.593,399.724,146.748z M396.428,146.748c0-1.547-1.005-2.451-2.994-2.451h-2.652v4.883h2.652
			C395.423,149.179,396.428,148.275,396.428,146.748z"/>
	</g>
	<g>
		<path d="M410.596,152.697h-6.531l-1.246,3.014h-3.336l6.27-14.066h3.216l6.29,14.066h-3.416L410.596,152.697z M409.571,150.224
			l-2.23-5.385l-2.23,5.385H409.571z"/>
	</g>
	<g>
		<path d="M433.143,151.269c0,2.875-2.351,4.684-5.324,4.684c-3.879,0-6.291-2.432-6.291-6.975c0-4.863,2.935-7.576,7.175-7.576
			c1.487,0,2.935,0.342,3.919,0.965l-1.206,2.393c-0.784-0.523-1.688-0.703-2.633-0.703c-2.351,0-3.858,1.387-3.958,4.078
			c0.823-0.824,2.009-1.246,3.477-1.246C431.014,146.888,433.143,148.617,433.143,151.269z M429.989,151.431
			c0-1.287-0.944-2.111-2.392-2.111c-1.427,0-2.432,0.885-2.432,2.111c0,1.205,0.904,2.09,2.472,2.09
			C429.024,153.521,429.989,152.716,429.989,151.431z"/>
	</g>
</g>
<g>
	<rect x="329.094" y="106.859" fill="#222221" width="119.813" height="4.012"/>
</g>
</svg>
