<?xml version="1.0" encoding="utf-8"?>
<!-- Generator: Adobe Illustrator 16.0.3, SVG Export Plug-In . SVG Version: 6.00 Build 0)  -->
<!DOCTYPE svg PUBLIC "-//W3C//DTD SVG 1.1//EN" "http://www.w3.org/Graphics/SVG/1.1/DTD/svg11.dtd">
<svg version="1.1" id="Warstwa_1" xmlns="http://www.w3.org/2000/svg" xmlns:xlink="http://www.w3.org/1999/xlink" x="0px" y="0px"
	 width="549px" height="325.5px" viewBox="-37.891 -35.65 549 325.5" enable-background="new -37.891 -35.65 549 325.5"
	 xml:space="preserve">
<g>
	<rect fill="#FFFFFF" width="476.219" height="267.699"/>
</g>
<g>
	<g>
		<rect x="17.111" y="19.698" fill="#FFFFFF" width="442" height="181.334"/>
	</g>
	<g>
		<g>
			<polygon fill="#222221" points="459.625,201.547 453.11,201.547 453.11,200.518 458.595,200.518 458.595,195.033 
				459.625,195.033 			"/>
		</g>
		<g>
			<path fill="#222221" d="M440.825,201.547h-12.286v-1.029h12.286V201.547z M416.253,201.547h-12.286v-1.029h12.286V201.547z
				 M391.682,201.547h-12.285v-1.029h12.285V201.547z M367.111,201.547h-12.286v-1.029h12.286V201.547z M342.54,201.547h-12.286
				v-1.029h12.286V201.547z M317.967,201.547h-12.285v-1.029h12.285V201.547z M293.396,201.547h-12.285v-1.029h12.285V201.547z
				 M268.825,201.547H256.54v-1.029h12.285V201.547z M244.253,201.547h-12.286v-1.029h12.286V201.547z M219.682,201.547h-12.286
				v-1.029h12.286V201.547z M195.111,201.547h-12.286v-1.029h12.286V201.547z M170.539,201.547h-12.286v-1.029h12.286V201.547z
				 M145.968,201.547h-12.286v-1.029h12.286V201.547z M121.396,201.547H109.11v-1.029h12.286V201.547z M96.825,201.547H84.54v-1.029
				h12.286L96.825,201.547L96.825,201.547z M72.253,201.547H59.968v-1.029h12.286L72.253,201.547L72.253,201.547z M47.682,201.547
				H35.396v-1.029h12.286V201.547z"/>
		</g>
		<g>
			<polygon fill="#222221" points="23.111,201.547 16.596,201.547 16.596,195.033 17.625,195.033 17.625,200.518 23.111,200.518 			
				"/>
		</g>
		<g>
			<path fill="#222221" d="M17.625,183.744h-1.029v-11.289h1.029V183.744z M17.625,161.166h-1.029v-11.289h1.029V161.166z
				 M17.625,138.588h-1.029v-11.289h1.029V138.588z M17.625,116.01h-1.029v-11.289h1.029V116.01z M17.625,93.433h-1.029V82.144
				h1.029V93.433z M17.625,70.854h-1.029V59.566h1.029V70.854z M17.625,48.277h-1.029V36.988h1.029V48.277z"/>
		</g>
		<g>
			<polygon fill="#222221" points="17.625,25.698 16.596,25.698 16.596,19.184 23.111,19.184 23.111,20.213 17.625,20.213 			"/>
		</g>
		<g>
			<path fill="#222221" d="M440.824,20.213h-12.285v-1.029h12.285V20.213z M416.252,20.213h-12.285v-1.029h12.285V20.213z
				 M391.682,20.213h-12.285v-1.029h12.285V20.213z M367.109,20.213h-12.285v-1.029h12.285V20.213z M342.539,20.213h-12.286v-1.029
				h12.286V20.213z M317.967,20.213h-12.285v-1.029h12.285V20.213z M293.396,20.213h-12.287v-1.029h12.287V20.213z M268.825,20.213
				h-12.286v-1.029h12.286V20.213z M244.252,20.213h-12.285v-1.029h12.285V20.213z M219.682,20.213h-12.286v-1.029h12.286V20.213z
				 M195.11,20.213h-12.286v-1.029h12.286V20.213z M170.539,20.213h-12.286v-1.029h12.286V20.213z M145.967,20.213h-12.286v-1.029
				h12.286V20.213z M121.396,20.213H109.11v-1.029h12.286V20.213z M96.825,20.213H84.539v-1.029h12.286V20.213z M72.253,20.213
				H59.967v-1.029h12.286V20.213z M47.682,20.213H35.396v-1.029h12.286V20.213z"/>
		</g>
		<g>
			<polygon fill="#222221" points="459.625,25.698 458.595,25.698 458.595,20.213 453.11,20.213 453.11,19.184 459.625,19.184 			
				"/>
		</g>
		<g>
			<path fill="#222221" d="M459.625,183.743h-1.029v-11.289h1.029V183.743z M459.625,161.165h-1.029v-11.289h1.029V161.165z
				 M459.625,138.587h-1.029v-11.29h1.029V138.587z M459.625,116.009h-1.029V104.72h1.029V116.009z M459.625,93.431h-1.029V82.143
				h1.029V93.431z M459.625,70.854h-1.029v-11.29h1.029V70.854z M459.625,48.276h-1.029V36.987h1.029V48.276z"/>
		</g>
	</g>
</g>
<g>
	<rect x="161.813" y="20.073" fill="#68A8DE" width="5" height="180.334"/>
</g>
<g>
	<rect x="309.146" y="20.073" fill="#68A8DE" width="5" height="180.334"/>
</g>
<g>
	<rect x="27.98" y="107.365" fill="#9C9B9B" width="118.667" height="3"/>
</g>
<g>
	<path fill="#9C9B9B" d="M147.139,107.844H27.488V30.046h119.651V107.844z M28.472,106.86h117.683V31.03H28.472V106.86z"/>
</g>
<g>
	<path fill="#9C9B9B" d="M147.139,187.684H27.488v-77.799h119.651V187.684z M28.472,186.699h117.683v-75.83H28.472V186.699z"/>
</g>
<g>
	<g>
		<rect x="16.98" y="249.224" fill="#ECECEC" width="441.999" height="32.5"/>
	</g>
	<g enable-background="new    ">
		<g>
			<path fill="#222221" d="M203.55,264.05h-3.36v-1.98h9.149v1.98h-3.36v8.52h-2.43L203.55,264.05L203.55,264.05z"/>
		</g>
		<g>
			<path fill="#222221" d="M217.335,272.568l-2.025-2.926h-0.12h-2.115v2.926h-2.43v-10.5h4.544c2.805,0,4.56,1.455,4.56,3.812
				c0,1.574-0.795,2.729-2.16,3.313l2.355,3.375H217.335z M215.055,264.05h-1.98v3.66h1.98c1.485,0,2.235-0.691,2.235-1.83
				C217.29,264.724,216.54,264.05,215.055,264.05z"/>
		</g>
		<g>
			<path fill="#222221" d="M226.56,268.849v3.721h-2.43v-3.75l-4.065-6.75h2.58l2.805,4.664l2.805-4.664h2.385L226.56,268.849z"/>
		</g>
		<g>
			<path fill="#222221" d="M241.184,269.704c0,1.813-1.438,2.864-4.199,2.864h-5.43v-10.5h5.129c2.625,0,3.975,1.097,3.975,2.729
				c0,1.05-0.54,1.859-1.396,2.31C240.434,267.482,241.184,268.384,241.184,269.704z M233.97,263.899v2.475h2.415
				c1.185,0,1.83-0.42,1.83-1.244c0-0.826-0.645-1.229-1.83-1.229L233.97,263.899L233.97,263.899z M238.74,269.447
				c0-0.885-0.675-1.305-1.935-1.305h-2.835v2.596h2.835C238.065,270.738,238.74,270.349,238.74,269.447z"/>
		</g>
		<g>
			<path fill="#222221" d="M242.939,267.947v-5.879h2.431v5.789c0,1.996,0.87,2.819,2.34,2.819c1.485,0,2.34-0.823,2.34-2.819
				v-5.789h2.4v5.879c0,3.091-1.771,4.802-4.755,4.802C244.71,272.749,242.939,271.038,242.939,267.947z"/>
		</g>
		<g>
			<path fill="#222221" d="M264.479,262.068v10.5h-1.994l-5.233-6.375v6.375h-2.399v-10.5h2.01l5.22,6.375v-6.375H264.479z"/>
		</g>
		<g>
			<path fill="#222221" d="M272.01,268.849v3.721h-2.43v-3.75l-4.064-6.75h2.58l2.805,4.664l2.805-4.664h2.386L272.01,268.849z"/>
		</g>
	</g>
</g>
<g enable-background="new    ">
	<g>
		<path d="M54.399,68.622h2.974v5.707c-1.547,1.166-3.678,1.789-5.687,1.789c-4.421,0-7.677-3.034-7.677-7.274
			c0-4.24,3.255-7.275,7.737-7.275c2.472,0,4.521,0.845,5.888,2.432l-2.09,1.93c-1.025-1.085-2.21-1.588-3.637-1.588
			c-2.733,0-4.602,1.829-4.602,4.502c0,2.632,1.869,4.501,4.562,4.501c0.884,0,1.708-0.16,2.532-0.603V68.622z"/>
	</g>
	<g>
		<path d="M69.351,75.877l-2.713-3.919h-0.161h-2.833v3.919h-3.255V61.81h6.089c3.758,0,6.109,1.949,6.109,5.104
			c0,2.11-1.065,3.657-2.894,4.441l3.155,4.521L69.351,75.877L69.351,75.877z M66.296,64.463h-2.653v4.903h2.653
			c1.989,0,2.994-0.925,2.994-2.452C69.291,65.367,68.286,64.463,66.296,64.463z"/>
	</g>
	<g>
		<path d="M75.038,69.688V61.81h3.255v7.757c0,2.673,1.166,3.778,3.135,3.778c1.989,0,3.135-1.105,3.135-3.778V61.81h3.215v7.878
			c0,4.14-2.371,6.431-6.37,6.431C77.409,76.118,75.038,73.827,75.038,69.688z"/>
	</g>
	<g>
		<path d="M103.193,66.914c0,3.135-2.351,5.084-6.109,5.084H94.25v3.879h-3.255V61.81h6.089
			C100.842,61.81,103.193,63.759,103.193,66.914z M99.897,66.914c0-1.547-1.005-2.451-2.994-2.451H94.25v4.883h2.653
			C98.892,69.346,99.897,68.441,99.897,66.914z"/>
	</g>
	<g>
		<path d="M114.065,72.862h-6.531l-1.246,3.015h-3.336l6.27-14.067h3.215l6.29,14.067h-3.416L114.065,72.862z M113.04,70.391
			l-2.23-5.386l-2.231,5.386H113.04z"/>
	</g>
	<g>
		<path d="M130.423,61.81v14.067h-3.255V64.422h-2.813V61.81H130.423z"/>
	</g>
</g>
<g enable-background="new    ">
	<g>
		<path d="M50.899,148.457h2.974v5.707c-1.547,1.166-3.678,1.789-5.687,1.789c-4.421,0-7.677-3.035-7.677-7.275
			s3.255-7.275,7.737-7.275c2.472,0,4.521,0.847,5.888,2.433l-2.09,1.931c-1.025-1.084-2.21-1.589-3.637-1.589
			c-2.733,0-4.602,1.83-4.602,4.503c0,2.633,1.869,4.502,4.562,4.502c0.884,0,1.708-0.16,2.532-0.604V148.457z"/>
	</g>
	<g>
		<path d="M65.851,155.71l-2.713-3.918h-0.161h-2.833v3.918h-3.255v-14.065h6.089c3.758,0,6.109,1.948,6.109,5.104
			c0,2.111-1.065,3.658-2.894,4.441l3.155,4.521H65.851z M62.796,144.296h-2.653v4.904h2.653c1.989,0,2.994-0.927,2.994-2.453
			C65.791,145.201,64.786,144.296,62.796,144.296z"/>
	</g>
	<g>
		<path d="M71.538,149.521v-7.877h3.255v7.756c0,2.674,1.166,3.779,3.135,3.779c1.989,0,3.135-1.105,3.135-3.779v-7.756h3.215v7.877
			c0,4.141-2.371,6.432-6.37,6.432S71.538,153.662,71.538,149.521z"/>
	</g>
	<g>
		<path d="M99.693,146.748c0,3.135-2.351,5.084-6.109,5.084H90.75v3.879h-3.255v-14.066h6.089
			C97.342,141.645,99.693,143.593,99.693,146.748z M96.397,146.748c0-1.547-1.005-2.451-2.994-2.451H90.75v4.883h2.653
			C95.392,149.18,96.397,148.275,96.397,146.748z"/>
	</g>
	<g>
		<path d="M110.565,152.697h-6.531l-1.246,3.014h-3.336l6.27-14.066h3.215l6.29,14.066h-3.416L110.565,152.697z M109.54,150.225
			l-2.23-5.386l-2.231,5.386H109.54z"/>
	</g>
	<g>
		<path d="M132.007,153.059v2.651h-10.631v-2.108l5.426-5.125c1.246-1.187,1.467-1.908,1.467-2.593c0-1.104-0.764-1.748-2.251-1.748
			c-1.206,0-2.23,0.462-2.914,1.406l-2.372-1.526c1.085-1.589,3.055-2.613,5.587-2.613c3.135,0,5.225,1.608,5.225,4.16
			c0,1.367-0.382,2.612-2.351,4.44l-3.235,3.056H132.007z"/>
	</g>
</g>
<g>
	<rect x="27.313" y="106.859" fill="#222221" width="119.813" height="4.012"/>
</g>
<g>
	<rect x="178.871" y="107.365" fill="#9C9B9B" width="118.667" height="3"/>
</g>
<g>
	<path fill="#9C9B9B" d="M298.029,107.844h-119.65V30.046h119.65V107.844z M179.363,106.86h117.682V31.03H179.363V106.86z"/>
</g>
<g>
	<path fill="#9C9B9B" d="M298.029,187.684h-119.65v-77.799h119.65V187.684z M179.363,186.699h117.682v-75.83H179.363V186.699z"/>
</g>
<g enable-background="new    ">
	<g>
		<path d="M202.841,68.622h2.974v5.707c-1.547,1.166-3.678,1.789-5.687,1.789c-4.421,0-7.677-3.034-7.677-7.274
			c0-4.24,3.255-7.275,7.737-7.275c2.472,0,4.521,0.845,5.888,2.432l-2.09,1.93c-1.025-1.085-2.21-1.588-3.637-1.588
			c-2.733,0-4.602,1.829-4.602,4.502c0,2.632,1.869,4.501,4.562,4.501c0.884,0,1.708-0.16,2.532-0.603V68.622z"/>
	</g>
	<g>
		<path d="M217.792,75.877l-2.713-3.919h-0.161h-2.833v3.919h-3.255V61.81h6.089c3.758,0,6.109,1.949,6.109,5.104
			c0,2.11-1.065,3.657-2.894,4.441l3.155,4.521L217.792,75.877L217.792,75.877z M214.738,64.463h-2.653v4.903h2.653
			c1.989,0,2.994-0.925,2.994-2.452C217.732,65.367,216.727,64.463,214.738,64.463z"/>
	</g>
	<g>
		<path d="M223.479,69.688V61.81h3.255v7.757c0,2.673,1.166,3.778,3.135,3.778c1.989,0,3.135-1.105,3.135-3.778V61.81h3.215v7.878
			c0,4.14-2.371,6.431-6.37,6.431C225.851,76.118,223.479,73.827,223.479,69.688z"/>
	</g>
	<g>
		<path d="M251.634,66.914c0,3.135-2.351,5.084-6.108,5.084h-2.834v3.879h-3.256V61.81h6.09
			C249.284,61.81,251.634,63.759,251.634,66.914z M248.338,66.914c0-1.547-1.005-2.451-2.994-2.451h-2.652v4.883h2.652
			C247.333,69.346,248.338,68.441,248.338,66.914z"/>
	</g>
	<g>
		<path d="M262.506,72.862h-6.531l-1.246,3.015h-3.336l6.271-14.067h3.216l6.29,14.067h-3.416L262.506,72.862z M261.48,70.391
			l-2.229-5.386l-2.229,5.386H261.48z"/>
	</g>
	<g>
		<path d="M283.829,71.576c0,2.371-1.829,4.542-5.828,4.542c-1.97,0-4-0.543-5.364-1.507l1.266-2.492
			c1.063,0.804,2.553,1.266,4.02,1.266c1.627,0,2.633-0.663,2.633-1.809c0-1.064-0.785-1.728-2.633-1.728h-1.488v-2.15l2.896-3.276
			h-5.988V61.81h9.847v2.11l-3.174,3.617C282.542,67.939,283.829,69.507,283.829,71.576z"/>
	</g>
</g>
<g enable-background="new    ">
	<g>
		<path d="M201.866,148.457h2.974v5.707c-1.547,1.166-3.678,1.789-5.687,1.789c-4.421,0-7.677-3.035-7.677-7.275
			s3.255-7.275,7.737-7.275c2.472,0,4.521,0.847,5.888,2.433l-2.09,1.931c-1.025-1.084-2.21-1.589-3.637-1.589
			c-2.733,0-4.602,1.83-4.602,4.503c0,2.633,1.869,4.502,4.562,4.502c0.884,0,1.708-0.16,2.532-0.604V148.457z"/>
	</g>
	<g>
		<path d="M216.818,155.71l-2.713-3.918h-0.161h-2.833v3.918h-3.255v-14.065h6.089c3.758,0,6.109,1.948,6.109,5.104
			c0,2.111-1.065,3.658-2.894,4.441l3.155,4.521H216.818z M213.763,144.296h-2.653v4.904h2.653c1.989,0,2.994-0.927,2.994-2.453
			C216.757,145.201,215.752,144.296,213.763,144.296z"/>
	</g>
	<g>
		<path d="M222.505,149.521v-7.877h3.255v7.756c0,2.674,1.166,3.779,3.135,3.779c1.989,0,3.135-1.105,3.135-3.779v-7.756h3.215
			v7.877c0,4.141-2.371,6.432-6.37,6.432S222.505,153.662,222.505,149.521z"/>
	</g>
	<g>
		<path d="M250.66,146.748c0,3.135-2.352,5.084-6.109,5.084h-2.833v3.879h-3.256v-14.066h6.089
			C248.309,141.645,250.66,143.593,250.66,146.748z M247.363,146.748c0-1.547-1.004-2.451-2.993-2.451h-2.652v4.883h2.652
			C246.359,149.18,247.363,148.275,247.363,146.748z"/>
	</g>
	<g>
		<path d="M261.532,152.697H255l-1.246,3.014h-3.336l6.27-14.066h3.217l6.289,14.066h-3.416L261.532,152.697z M260.506,150.225
			l-2.23-5.386l-2.229,5.386H260.506z"/>
	</g>
	<g>
		<path d="M285.346,152.757h-2.291v2.953h-3.176v-2.953h-7.576v-2.19l6.631-8.922h3.418l-6.149,8.461h3.778v-2.633h3.074v2.633
			h2.291V152.757L285.346,152.757z"/>
	</g>
</g>
<g>
	<rect x="178.204" y="106.859" fill="#222221" width="119.813" height="4.012"/>
</g>
<g>
	<rect x="329.76" y="107.365" fill="#9C9B9B" width="118.668" height="3"/>
</g>
<g>
	<path fill="#9C9B9B" d="M448.92,107.844H329.268V30.046H448.92V107.844z M330.252,106.86h117.684V31.03H330.252V106.86z"/>
</g>
<g>
	<path fill="#9C9B9B" d="M448.92,187.684H329.268v-77.799H448.92V187.684z M330.252,186.699h117.684v-75.83H330.252V186.699z"/>
</g>
<g enable-background="new    ">
	<g>
		<path d="M354.43,68.622h2.975v5.707c-1.547,1.166-3.678,1.789-5.688,1.789c-4.421,0-7.676-3.034-7.676-7.274
			c0-4.24,3.255-7.275,7.736-7.275c2.472,0,4.521,0.845,5.889,2.432l-2.09,1.93c-1.025-1.085-2.211-1.588-3.639-1.588
			c-2.732,0-4.603,1.829-4.603,4.502c0,2.632,1.869,4.501,4.563,4.501c0.884,0,1.707-0.16,2.531-0.603V68.622L354.43,68.622z"/>
	</g>
	<g>
		<path d="M369.382,75.877l-2.713-3.919h-0.161h-2.834v3.919h-3.255V61.81h6.089c3.758,0,6.109,1.949,6.109,5.104
			c0,2.11-1.064,3.657-2.895,4.441l3.155,4.521L369.382,75.877L369.382,75.877z M366.328,64.463h-2.653v4.903h2.653
			c1.988,0,2.994-0.925,2.994-2.452C369.322,65.367,368.316,64.463,366.328,64.463z"/>
	</g>
	<g>
		<path d="M375.068,69.688V61.81h3.257v7.757c0,2.673,1.166,3.778,3.135,3.778c1.99,0,3.136-1.105,3.136-3.778V61.81h3.215v7.878
			c0,4.14-2.371,6.431-6.369,6.431C377.439,76.118,375.068,73.827,375.068,69.688z"/>
	</g>
	<g>
		<path d="M403.225,66.914c0,3.135-2.352,5.084-6.109,5.084h-2.833v3.879h-3.257V61.81h6.09
			C400.874,61.81,403.225,63.759,403.225,66.914z M399.928,66.914c0-1.547-1.005-2.451-2.994-2.451h-2.651v4.883h2.651
			C398.923,69.346,399.928,68.441,399.928,66.914z"/>
	</g>
	<g>
		<path d="M414.096,72.862h-6.531l-1.246,3.015h-3.336l6.271-14.067h3.216l6.29,14.067h-3.416L414.096,72.862z M413.07,70.391
			l-2.229-5.386l-2.229,5.386H413.07z"/>
	</g>
	<g>
		<path d="M435.659,71.456c0,2.491-1.828,4.662-5.849,4.662c-1.948,0-3.998-0.543-5.364-1.507l1.286-2.492
			c1.064,0.804,2.531,1.266,3.999,1.266c1.627,0,2.633-0.683,2.633-1.828c0-1.105-0.725-1.829-3.275-1.829h-3.598l0.723-7.918h8.582
			v2.612h-5.869l-0.221,2.673h1.146C434.011,67.095,435.659,68.964,435.659,71.456z"/>
	</g>
</g>
<g enable-background="new    ">
	<g>
		<path d="M350.93,148.457h2.975v5.707c-1.547,1.166-3.678,1.789-5.688,1.789c-4.421,0-7.676-3.035-7.676-7.275
			s3.255-7.275,7.736-7.275c2.472,0,4.521,0.847,5.889,2.433l-2.09,1.931c-1.025-1.084-2.211-1.589-3.639-1.589
			c-2.732,0-4.603,1.83-4.603,4.503c0,2.633,1.869,4.502,4.563,4.502c0.884,0,1.707-0.16,2.531-0.604V148.457L350.93,148.457z"/>
	</g>
	<g>
		<path d="M365.882,155.71l-2.713-3.918h-0.161h-2.834v3.918h-3.255v-14.065h6.089c3.758,0,6.109,1.948,6.109,5.104
			c0,2.111-1.064,3.658-2.895,4.441l3.155,4.521H365.882z M362.828,144.296h-2.653v4.904h2.653c1.988,0,2.994-0.927,2.994-2.453
			C365.822,145.201,364.816,144.296,362.828,144.296z"/>
	</g>
	<g>
		<path d="M371.568,149.521v-7.877h3.257v7.756c0,2.674,1.166,3.779,3.135,3.779c1.99,0,3.136-1.105,3.136-3.779v-7.756h3.215v7.877
			c0,4.141-2.371,6.432-6.369,6.432C373.939,155.953,371.568,153.662,371.568,149.521z"/>
	</g>
	<g>
		<path d="M399.725,146.748c0,3.135-2.352,5.084-6.109,5.084h-2.833v3.879h-3.257v-14.066h6.09
			C397.374,141.645,399.725,143.593,399.725,146.748z M396.428,146.748c0-1.547-1.005-2.451-2.994-2.451h-2.651v4.883h2.651
			C395.423,149.18,396.428,148.275,396.428,146.748z"/>
	</g>
	<g>
		<path d="M410.596,152.697h-6.531l-1.246,3.014h-3.336l6.271-14.066h3.216l6.29,14.066h-3.416L410.596,152.697z M409.57,150.225
			l-2.229-5.386l-2.229,5.386H409.57z"/>
	</g>
	<g>
		<path d="M433.143,151.27c0,2.875-2.351,4.684-5.323,4.684c-3.879,0-6.291-2.432-6.291-6.975c0-4.863,2.935-7.576,7.175-7.576
			c1.487,0,2.935,0.342,3.919,0.965l-1.206,2.393c-0.784-0.523-1.688-0.703-2.633-0.703c-2.352,0-3.858,1.387-3.958,4.078
			c0.823-0.824,2.009-1.246,3.477-1.246C431.014,146.889,433.143,148.617,433.143,151.27z M429.989,151.432
			c0-1.287-0.944-2.111-2.393-2.111c-1.427,0-2.432,0.885-2.432,2.111c0,1.204,0.904,2.09,2.472,2.09
			C429.024,153.521,429.989,152.716,429.989,151.432z"/>
	</g>
</g>
<g>
	<rect x="329.094" y="106.859" fill="#222221" width="119.813" height="4.012"/>
</g>
<path fill="#3F3E3E" d="M205.995-2.949c-1.748,2.734-3.532,5.458-5.541,8.009c-1.658,2.106-3.404,4.447-6.347,4.502
	c-2.427,0.045-5.103-1.271-7.302-2.181c-2.825-1.168-5.854-2.467-8.156-4.521c-0.895-0.798-0.38-2.697,0.958-2.587
	c3.428,0.282,6.825,1.452,10.145,2.531c-5.814-11.929-18.233-18.224-31.475-17.947c-13.952,0.292-30.038,6.429-38.729,17.682
	c-0.954,1.234-3.054-0.238-2.245-1.573c8.332-13.751,26.434-21.357,42.073-21.728c14.632-0.347,31.115,7.222,36.583,21.579
	c0.095-0.18,0.19-0.354,0.285-0.509c1.295-2.108,2.616-4.195,3.86-6.334C202.27-9.75,208.278-6.52,205.995-2.949z"/>
<path fill="#3F3E3E" d="M367.697-2.949c-1.748,2.734-3.533,5.458-5.541,8.009c-1.658,2.106-3.404,4.447-6.348,4.502
	c-2.427,0.045-5.103-1.271-7.302-2.181c-2.825-1.168-5.854-2.467-8.156-4.521c-0.896-0.798-0.38-2.697,0.958-2.587
	c3.428,0.282,6.825,1.452,10.146,2.531c-5.814-11.929-18.233-18.224-31.476-17.947c-13.951,0.292-30.037,6.429-38.729,17.682
	c-0.953,1.234-3.054-0.238-2.244-1.573c8.332-13.751,26.434-21.357,42.072-21.728c14.633-0.347,31.115,7.222,36.584,21.579
	c0.095-0.18,0.189-0.354,0.284-0.509c1.295-2.108,2.616-4.195,3.86-6.334C363.973-9.75,369.98-6.52,367.697-2.949z"/>
<path fill="#3F3E3E" d="M482.562,148.047c-2.734-1.748-5.458-3.533-8.009-5.541c-2.106-1.658-4.447-3.404-4.503-6.348
	c-0.045-2.426,1.271-5.102,2.181-7.301c1.168-2.825,2.468-5.854,4.521-8.156c0.799-0.896,2.697-0.38,2.587,0.958
	c-0.281,3.428-1.452,6.825-2.531,10.146c11.93-5.814,18.225-18.233,17.947-31.476c-0.292-13.951-6.43-30.037-17.682-38.729
	c-1.234-0.953,0.237-3.054,1.572-2.244c13.751,8.332,21.357,26.434,21.728,42.072c0.347,14.633-7.222,31.115-21.578,36.583
	c0.18,0.096,0.354,0.189,0.509,0.285c2.108,1.295,4.195,2.615,6.335,3.859C489.362,144.322,486.132,150.33,482.562,148.047z"/>
<path fill="#3F3E3E" d="M280.406,221.9c1.747-2.733,3.532-5.457,5.54-8.008c1.658-2.107,3.404-4.447,6.348-4.503
	c2.427-0.045,5.103,1.271,7.302,2.181c2.825,1.168,5.854,2.467,8.156,4.521c0.896,0.799,0.381,2.697-0.958,2.587
	c-3.428-0.282-6.825-1.452-10.146-2.531c5.814,11.929,18.233,18.224,31.476,17.946c13.952-0.291,30.038-6.429,38.729-17.682
	c0.953-1.234,3.054,0.238,2.244,1.573c-8.332,13.751-26.434,21.356-42.072,21.728c-14.633,0.347-31.115-7.222-36.583-21.578
	c-0.096,0.18-0.19,0.354-0.285,0.509c-1.295,2.108-2.616,4.194-3.86,6.335C284.131,228.702,278.122,225.472,280.406,221.9z"/>
<path fill="#3F3E3E" d="M118.703,221.899c1.748-2.733,3.533-5.457,5.541-8.008c1.658-2.107,3.404-4.447,6.348-4.503
	c2.427-0.045,5.103,1.271,7.302,2.181c2.825,1.168,5.854,2.467,8.156,4.521c0.896,0.799,0.38,2.697-0.958,2.587
	c-3.428-0.282-6.825-1.452-10.146-2.531c5.814,11.929,18.233,18.224,31.476,17.947c13.951-0.291,30.037-6.43,38.729-17.682
	c0.953-1.234,3.054,0.238,2.244,1.573c-8.332,13.751-26.434,21.356-42.072,21.728c-14.633,0.346-31.115-7.223-36.584-21.579
	c-0.095,0.18-0.189,0.354-0.284,0.509c-1.295,2.108-2.616,4.194-3.86,6.335C122.428,228.701,116.42,225.471,118.703,221.899z"/>
<path fill="#3F3E3E" d="M-8.386,64.683c2.733,1.748,5.457,3.533,8.008,5.541c2.107,1.658,4.447,3.404,4.503,6.348
	c0.045,2.427-1.271,5.103-2.181,7.302c-1.168,2.825-2.467,5.854-4.521,8.156c-0.799,0.896-2.697,0.38-2.587-0.958
	c0.282-3.428,1.452-6.825,2.531-10.146c-11.929,5.814-18.224,18.233-17.947,31.476c0.291,13.951,6.43,30.037,17.682,38.729
	c1.234,0.953-0.238,3.054-1.573,2.244c-13.751-8.332-21.356-26.434-21.728-42.073c-0.346-14.633,7.223-31.115,21.579-36.584
	c-0.18-0.095-0.354-0.189-0.509-0.284c-2.108-1.295-4.194-2.616-6.335-3.86C-15.188,68.408-11.958,62.4-8.386,64.683z"/>
</svg>
